<svg xmlns="http://www.w3.org/2000/svg" xmlns:xlink="http://www.w3.org/1999/xlink" viewBox="0 0 368 116.17"><defs><style>.cls-1{fill:url(#linear-gradient);}.cls-2{fill:url(#linear-gradient-2);}.cls-3{fill:url(#linear-gradient-3);}.cls-4{fill:url(#linear-gradient-4);}.cls-5{fill:url(#linear-gradient-5);}.cls-6{fill:url(#linear-gradient-6);}.cls-7{clip-path:url(#clip-path);}</style><linearGradient id="linear-gradient" x1="354.93" y1="-78.5" x2="-2.52" y2="60.91" gradientUnits="userSpaceOnUse"><stop offset="0" stop-color="#051937"/><stop offset="0.25" stop-color="#422d5b"/><stop offset="0.5" stop-color="#853c71"/><stop offset="0.75" stop-color="#c65074"/><stop offset="1" stop-color="#fa7268"/></linearGradient><linearGradient id="linear-gradient-2" x1="362.81" y1="-58.29" x2="5.36" y2="81.11" xlink:href="#linear-gradient"/><linearGradient id="linear-gradient-3" x1="371.34" y1="-36.41" x2="13.9" y2="102.99" xlink:href="#linear-gradient"/><linearGradient id="linear-gradient-4" x1="378.8" y1="-17.28" x2="21.36" y2="122.12" xlink:href="#linear-gradient"/><linearGradient id="linear-gradient-5" x1="383.88" y1="-4.27" x2="26.43" y2="135.14" xlink:href="#linear-gradient"/><linearGradient id="linear-gradient-6" x1="392.67" y1="18.26" x2="35.22" y2="157.67" xlink:href="#linear-gradient"/><clipPath id="clip-path"><rect class="cls-1" x="26" y="6" width="63" height="63" rx="17.01"/></clipPath></defs><title>Asset 1</title><g id="Layer_2" data-name="Layer 2"><g id="Layer_2-2" data-name="Layer 2"><path class="cls-2" d="M138,26v-.2a8.7,8.7,0,0,0-1.4-4.61,9.93,9.93,0,0,0-2.95-2.84,10.6,10.6,0,0,0-3.55-1.41,18.15,18.15,0,0,0-3.17-.36,24.51,24.51,0,0,0-3.34.26,14.4,14.4,0,0,0-3.48.93,7.92,7.92,0,0,0-2.77,1.87,4.33,4.33,0,0,0-1.11,3.06,2.8,2.8,0,0,0,.43,1.55,3.85,3.85,0,0,0,1.51,1.26,15.32,15.32,0,0,0,2.94,1.12c1.25.36,2.85.73,4.82,1.11s4.07.92,5.89,1.44a16.75,16.75,0,0,1,4.71,2.13,9.8,9.8,0,0,1,3.12,3.38,10.41,10.41,0,0,1,1.15,5.15,11,11,0,0,1-3.59,8.71q-3.6,3.18-9.56,3.17a21,21,0,0,1-6.72-1.12,13.48,13.48,0,0,1-5.56-3.42,1.25,1.25,0,0,0-.79-.43c-.39,0-.58.29-.58.87V51h-1V38h.66q.14,6.47,3.86,9.84t10,3.38a13.47,13.47,0,0,0,3.39-.47,12.64,12.64,0,0,0,3.28-1.38A8,8,0,0,0,136.65,47a5.6,5.6,0,0,0,1-3.3,3.8,3.8,0,0,0-1.13-2.8,9.57,9.57,0,0,0-2.85-1.89,18.51,18.51,0,0,0-3.79-1.2c-1.38-.29-2.71-.55-4-.79a35.1,35.1,0,0,1-6.05-1.6,13.47,13.47,0,0,1-4-2.29,8,8,0,0,1-2.3-3.2,11.42,11.42,0,0,1-.73-4.24A8.39,8.39,0,0,1,114,21.22a9.32,9.32,0,0,1,3.13-3.08,15.16,15.16,0,0,1,4.48-1.78,23,23,0,0,1,5.22-.58,15.28,15.28,0,0,1,5.53,1A40.52,40.52,0,0,1,137.05,19a1.19,1.19,0,0,0,.51.15c.25,0,.38-.11.4-.33a3.62,3.62,0,0,0,0-.47V16h1V26Z"/><path class="cls-3" d="M171.08,21.36c-.38-.77-.68-1.44-.9-2a5.23,5.23,0,0,0-.75-1.4,2.61,2.61,0,0,0-1.05-.79,6.48,6.48,0,0,0-1.62-.15H164V16h20v1h-3.13s-2.08.33-2.08,1.19a5.08,5.08,0,0,0,.43,1.62c.29.75.83,2,1.62,3.71s1.89,4.08,3.31,7.06,3.23,6.86,5.44,11.66Q193,34,195.06,29.32c1.34-3.15,2.35-5.52,3-7.13s1.11-2.67,1.3-3.17a3.69,3.69,0,0,0,.29-1A.85.85,0,0,0,199,17a5.25,5.25,0,0,0-1.8,0H194V16h13v1h-2a9.37,9.37,0,0,0-2.2,0,3.38,3.38,0,0,0-1.44.54,4,4,0,0,0-1.12,1.34c-.33.6-.74,1.45-1.22,2.55L182.67,60.17a19.93,19.93,0,0,1-4,6.3,8.61,8.61,0,0,1-6.41,2.41,5.76,5.76,0,0,1-2.55-.54A6,6,0,0,1,167.81,67a5.27,5.27,0,0,1-1.12-1.87,6.51,6.51,0,0,1-.36-2.12,4.06,4.06,0,0,1,1.37-3.39,4.65,4.65,0,0,1,3-1.08,4.17,4.17,0,0,1,4.1,4.1,4.19,4.19,0,0,1-1.22,3.1,3.94,3.94,0,0,1-2.88,1.23,3.84,3.84,0,0,1-1.73-.37l-.43-.21c-.1,0-.14.07-.14.21,0,.29.43.66,1.29,1.12a5.5,5.5,0,0,0,2.59.69,10.83,10.83,0,0,0,2.35-.29,8.07,8.07,0,0,0,2.55-1.15,11.23,11.23,0,0,0,2.56-2.49,19.55,19.55,0,0,0,2.41-4.35l3.31-7.92Z"/><path class="cls-4" d="M240,32q0,4,.33,7.56a24.69,24.69,0,0,0,1.3,6.18,9.65,9.65,0,0,0,2.74,4.15,6.81,6.81,0,0,0,4.59,1.52,15.93,15.93,0,0,0,4.26-.63,18.28,18.28,0,0,0,4.3-1.82,16.71,16.71,0,0,0,3.7-2.92,12.24,12.24,0,0,0,2.56-4h.66a14.3,14.3,0,0,1-2.29,4,15.21,15.21,0,0,1-3.56,3.15,17.47,17.47,0,0,1-4.7,2.08,20.74,20.74,0,0,1-5.59.74,18.77,18.77,0,0,1-6.82-1.23,16.55,16.55,0,0,1-5.59-3.51,15.94,15.94,0,0,1-3.78-5.67,20.09,20.09,0,0,1-1.37-7.59,22.22,22.22,0,0,1,1.37-8.15A16.21,16.21,0,0,1,235.86,20a16,16,0,0,1,5.59-3.52,19.4,19.4,0,0,1,6.82-1.18,17.4,17.4,0,0,1,6.37,1.15,15,15,0,0,1,5.18,3.33,16.41,16.41,0,0,1,3.56,5.3,18.37,18.37,0,0,1,1.4,7Zm15.34-1q0-7.63-1.73-11.38t-5-3.74a11,11,0,0,0-2.38.32,5.14,5.14,0,0,0-2.62,1.8,13.4,13.4,0,0,0-2.24,4.5,33.64,33.64,0,0,0-1.18,8.5Z"/><path class="cls-5" d="M288,16h4V8.76a27.25,27.25,0,0,0,4.2-1.19C297.64,7,298.57,6.41,299,5h0V16h10v1h-9V42.94c0,2.34.34,4,1,5a3.07,3.07,0,0,0,2.58,1.43,4.11,4.11,0,0,0,4.07-2.65A19.69,19.69,0,0,0,308.85,39h.64c0,1.24-.05,2.57-.14,4a11.06,11.06,0,0,1-1,3.94,7.15,7.15,0,0,1-2.65,3,11.6,11.6,0,0,1-9.74.21,7.36,7.36,0,0,1-2.58-2.29A7.06,7.06,0,0,1,292.25,45a15.66,15.66,0,0,1-.25-2.58V17h-4Z"/><path class="cls-6" d="M363,44.09a6.16,6.16,0,0,0,.46,2.91,1.39,1.39,0,0,0,1.24.76c1.42,0,2.12-1.92,2.12-5.76H368v1.58q0,7.71-6.72,7.71a6.33,6.33,0,0,1-4.51-1.66Q355,48,355,43.94l-.22-.14q-2.07,7.49-11.3,7.49a13,13,0,0,1-4.1-.65,10.14,10.14,0,0,1-3.44-1.91,9.15,9.15,0,0,1-2.32-3,8.91,8.91,0,0,1-.85-3.93A7.9,7.9,0,0,1,334,37.39a10.36,10.36,0,0,1,3.51-3.27,18.09,18.09,0,0,1,5.47-2,34,34,0,0,1,7.13-.68,17.19,17.19,0,0,1,2.76.21L355,32V26.52c0-1.06-.05-2.18-.14-3.38a9,9,0,0,0-.92-3.35,6.45,6.45,0,0,0-2.37-2.56,8.3,8.3,0,0,0-4.43-1,15.38,15.38,0,0,0-3,.29,12.12,12.12,0,0,0-2.48.76,6.4,6.4,0,0,0-1.67,1,1.47,1.47,0,0,0-.6,1,.51.51,0,0,0,.57.58,3.81,3.81,0,0,1,2.83,1.22,4.25,4.25,0,0,1,1.2,3.1,4,4,0,0,1-1.2,2.88,3.85,3.85,0,0,1-2.83,1.22,4.06,4.06,0,0,1-3.27-1.48,5.29,5.29,0,0,1-1-3.17,6.65,6.65,0,0,1,1.12-3.52,8.55,8.55,0,0,1,3-2.63,14.53,14.53,0,0,1,4.39-1.44,31,31,0,0,1,5.28-.43q7,0,10.26,3T363,27.46Zm-16.06,6.07a6.12,6.12,0,0,0,2.73-.72,8.3,8.3,0,0,0,2.63-2.13,11.15,11.15,0,0,0,1.94-3.52,14.57,14.57,0,0,0,.76-4.94v-6.4a12.52,12.52,0,0,0-1.91-.43,18.83,18.83,0,0,0-3.2-.22,8.64,8.64,0,0,0-6.66,2.52,9.87,9.87,0,0,0-2.34,7,13.34,13.34,0,0,0,1.33,6.45Q343.56,50.17,346.94,50.16Z"/><rect class="cls-1" x="26" y="6" width="63" height="63" rx="17.01"/><g class="cls-7"><rect class="cls-1" x="26" y="6" width="63" height="63" rx="17.01"/><image width="960" height="960" transform="matrix(-0.12, 0, 0, 0.12, 116.17, 0)" xlink:href="D:%5CSelf%5CDesign_Source%5CDuAn2%5Cgirl.png"/></g></g></g></svg>